<?xml version="1.0" standalone="no"?>
<!DOCTYPE svg PUBLIC "-//W3C//DTD SVG 20010904//EN"
 "http://www.w3.org/TR/2001/REC-SVG-20010904/DTD/svg10.dtd">
<svg version="1.0" xmlns="http://www.w3.org/2000/svg"
 width="900.000000pt" height="900.000000pt" viewBox="0 0 900.000000 900.000000"
 preserveAspectRatio="xMidYMid meet">
<metadata>
Created by potrace 1.14, written by Peter Selinger 2001-2017
</metadata>
<g transform="translate(0.000000,900.000000) scale(0.100000,-0.100000)"
fill="#000000" stroke="none">
<path d="M7205 5849 c-33 -19 -76 -62 -91 -91 -18 -34 -18 -119 0 -161 28 -68
112 -113 192 -104 164 18 221 232 89 333 -31 24 -49 29 -104 32 -38 1 -75 -2
-86 -9z m113 -25 c25 -17 31 -84 9 -102 -27 -23 -62 -24 -90 -2 -70 56 7 156
81 104z"/>
<path d="M5019 4767 c-64 -34 -102 -93 -107 -166 -10 -140 77 -236 213 -235
71 1 108 18 158 73 73 80 75 191 5 276 -64 77 -179 99 -269 52z m154 -29 c39
-46 5 -128 -53 -128 -42 0 -80 35 -80 74 0 75 85 110 133 54z"/>
<path d="M7075 1493 c-198 -27 -456 -81 -595 -125 -137 -43 -260 -98 -260
-115 0 -21 99 -116 142 -136 89 -42 191 -3 275 106 l22 29 49 -50 c83 -86 163
-79 262 21 61 61 90 108 125 200 28 74 28 78 18 76 -5 -1 -21 -4 -38 -6z"/>
<path d="M2526 1249 c-159 -18 -337 -72 -466 -141 -95 -50 -190 -111 -190
-121 0 -4 39 -26 86 -49 143 -69 276 -64 349 12 27 28 34 30 102 30 89 0 130
16 170 64 33 41 51 90 60 166 7 57 15 54 -111 39z"/>
<path d="M4995 813 c-96 -8 -279 -36 -384 -60 -118 -26 -389 -108 -405 -123
-12 -12 120 -106 182 -130 104 -39 184 -22 247 53 l37 45 51 -32 c45 -28 58
-31 127 -31 69 0 81 3 120 30 47 32 118 122 156 197 13 26 24 50 24 53 0 5
-82 4 -155 -2z"/>
</g>
</svg>
